<svg xmlns="http://www.w3.org/2000/svg" width="129" height="157" viewBox="0 0 129 157">
  <g id="Group_8" data-name="Group 8" transform="translate(-162.284 -23.284)">
    <g id="Group_1" data-name="Group 1" transform="translate(194.439 23.284)">
      <path id="Path_1" data-name="Path 1" d="M239.536,65.279H191.8c9.73,9.584,6.643,20.885,11.272,30.523a9.334,9.334,0,0,0,3.718,3.9,7.686,7.686,0,0,1,.312,2.562h17.137a7.583,7.583,0,0,1,.311-2.562,9.3,9.3,0,0,0,3.719-3.9C233.075,85.81,230.168,74.506,239.536,65.279Z" transform="translate(-183.336 -7.218)" fill="#f6f1ec" fill-rule="evenodd"/>
      <path id="Path_2" data-name="Path 2" d="M217.253,80.647c-.914-.424-1.065-1.342-.362-1.746.358-.2.5-.416.5-.628,0-.828-3.116-2.035-4.069-2.815a2.5,2.5,0,0,1-1.172-2.529c1.145-4.351,16.725,1.417,16.186-4.466-.18-1.959-2.33-2.791-4.715-3.1-4.243-.55-8.109.365-12.22,1a96.2,96.2,0,0,1-16.135.953c-7.1-.451-10.23-3.924-9.483-7.2,1.748-7.658,18.905-6.39,24.923-5.876,10.169.868,20.235,4.495,30.226,1.972,11.826-2.988,8.236-11.967-9.148-10.553-3.376.275-14.17,2.934-21.339,1.926-9.045-1.271-9.252-10.31.188-10.842,4.521-.256,9.612.453,9.671-2.758.058-3.116-6.446-5.316-1.215-10.7-2.549,5.888,4.838,5.891,5.08,10.947.228,4.8-6.6,4.343-9.907,4.591-5.745.43-4.569,4.767.124,5.389,5.316.705,14.6-1.518,17.195-1.837,8.717-1.383,22.208-5.684,26.133,5.142,2.49,6.866-2.509,14.89-16.755,13.671-10.107-.864-19.779-3.6-30.249-4.055-5.926-.257-13.925.3-13.873,3.163.091,5.006,17.817,3.133,20.691,2.641a47.626,47.626,0,0,1,8.275-.521c12.07.517,12.053,11.4-.713,11.094-2.338-.057-4.965-.2-6.136.307-3.2,1.4.589,2.8.2,4.336C218.795,79.617,216.884,78.723,217.253,80.647Z" transform="translate(-185.677 -23.284)" fill="#f6f1ec" fill-rule="evenodd"/>
      <path id="Path_3" data-name="Path 3" d="M222.705,77.753a.736.736,0,0,1-1.406-.437,9.713,9.713,0,0,1,1.183-2.526,7.535,7.535,0,0,1,1.786-1.893,6.2,6.2,0,0,1,3.419-1.24,5,5,0,0,1,2.619.583,3.92,3.92,0,0,1,1.759,1.943,4.438,4.438,0,0,1,.189,2.612,7.091,7.091,0,0,1-1.966,3.581,16.5,16.5,0,0,1-3.152,2.4l-.438.274-.043.024c-2.747,1.7-5.984,3.729-6.1,7.137a.735.735,0,0,1-1.47-.046c.147-4.193,3.744-6.444,6.8-8.34l.039-.026.44-.272a15.31,15.31,0,0,0,2.876-2.175,5.676,5.676,0,0,0,1.579-2.849,2.984,2.984,0,0,0-.109-1.757,2.446,2.446,0,0,0-1.107-1.211,3.527,3.527,0,0,0-1.851-.406,4.724,4.724,0,0,0-2.6.954,6.125,6.125,0,0,0-1.439,1.528A8.328,8.328,0,0,0,222.705,77.753Z" transform="translate(-172.897 -4.78)" fill="#f6f1ec" fill-rule="evenodd"/>
    </g>
    <path id="Path_4" data-name="Path 4" d="M162.284,106.238q64.5-21.274,129,0A148.528,148.528,0,0,0,162.284,106.238Z" transform="translate(0 25.569)" fill="#f6f1ec" fill-rule="evenodd"/>
    <g id="Group_2" data-name="Group 2" transform="translate(188.033 147.524)">
      <path id="Path_5" data-name="Path 5" d="M190.534,124.35h51.213l-25.606,18.072Z" transform="translate(-177.39 -109.662)" fill="#f6f1ec" fill-rule="evenodd"/>
      <path id="Path_6" data-name="Path 6" d="M191.387,120h54.3l-2.523,1.779-25.605,18.073-.563.4-.563-.4-25.607-18.073L188.3,120Zm48.129,1.96H194.472l22.522,15.894Z" transform="translate(-178.243 -111.327)" fill="#242021" fill-rule="evenodd"/>
      <path id="Rectangle_5" data-name="Rectangle 5" d="M2.672,0H74.829A2.672,2.672,0,0,1,77.5,2.672v9.853A2.672,2.672,0,0,1,74.828,15.2H2.671A2.671,2.671,0,0,1,0,12.526V2.672A2.672,2.672,0,0,1,2.672,0Z" fill="#f6f1ec"/>
      <path id="Path_7" data-name="Path 7" d="M183.79,123.706h1.492V121.14h2.292v-1.257h-2.292v-1.532h2.677v-1.257H183.79v6.611Zm4.99,0h1.492v-2.92a1.245,1.245,0,0,1,1.1-.924,1.873,1.873,0,0,1,.549.082l.243-1.289a1.447,1.447,0,0,0-.6-.1,1.682,1.682,0,0,0-1.43,1H190.1l-.1-.882H188.78v5.03Zm3.642-2.515a2.452,2.452,0,0,0,2.545,2.637,3.3,3.3,0,0,0,1.785-.567l-.5-.9a2.032,2.032,0,0,1-1.085.335,1.218,1.218,0,0,1-1.308-1.1h3.013a3.059,3.059,0,0,0,.059-.629,2.123,2.123,0,0,0-2.139-2.413,2.471,2.471,0,0,0-2.374,2.637Zm1.43-.518c.1-.668.509-.982.975-.982.6,0,.842.405.842.982Zm3.672,2.455a3.246,3.246,0,0,0,1.927.7c1.349,0,2.068-.709,2.068-1.623s-.719-1.277-1.359-1.51c-.517-.194-.983-.314-.983-.64,0-.253.182-.4.568-.4a1.857,1.857,0,0,1,1.065.427l.669-.893a2.888,2.888,0,0,0-1.774-.639c-1.168,0-1.929.639-1.929,1.572,0,.832.722,1.247,1.329,1.481.518.2,1.024.355,1.024.69,0,.263-.192.424-.639.424a2.165,2.165,0,0,1-1.3-.527l-.669.933Zm4.939.578h1.492v-3.4a1.274,1.274,0,0,1,.933-.485c.426,0,.619.223.619.953v2.931H207v-3.123c0-1.258-.466-2.028-1.562-2.028a2.309,2.309,0,0,0-1.551.689l.071-.9V116.6h-1.492v7.109Zm5.792-1.562c0,1.015.346,1.684,1.37,1.684a1.931,1.931,0,0,0,.751-.122l-.182-1.1a.622.622,0,0,1-.184.021c-.122,0-.263-.1-.263-.418V116.6h-1.492v5.547Zm3.013,2.294L211,125.573a2.284,2.284,0,0,0,.709.1c1.186,0,1.724-.648,2.2-1.916l1.745-5.081h-1.431l-.608,2.16c-.122.477-.232.954-.344,1.43h-.041c-.131-.5-.253-.973-.4-1.43l-.719-2.16h-1.5l1.938,4.9-.072.264a.853.853,0,0,1-.882.658,1.718,1.718,0,0,1-.335-.059Zm8.9-6.157h.77c.781,0,1.207.223,1.207.871s-.426.984-1.207.984h-.77v-1.855Zm3.762,5.425-1.5-2.646a1.934,1.934,0,0,0,1.177-1.908c0-1.572-1.146-2.057-2.545-2.057h-2.384v6.611h1.492v-2.384h.821l1.268,2.384Zm.477-2.515a2.456,2.456,0,1,0,2.453-2.637,2.465,2.465,0,0,0-2.453,2.637Zm1.531,0c0-.872.306-1.43.922-1.43s.924.557.924,1.43-.314,1.431-.924,1.431-.922-.559-.922-1.431Zm4.1,1.116a1.445,1.445,0,0,0,1.49,1.521,2.213,2.213,0,0,0,1.471-.639h.03l.111.517h1.218v-2.88c0-1.542-.709-2.272-2-2.272a4.166,4.166,0,0,0-2.15.658l.527.984a2.715,2.715,0,0,1,1.34-.456.7.7,0,0,1,.791.73c-1.988.2-2.83.781-2.83,1.836Zm1.42-.112c0-.386.346-.69,1.41-.831v.882a1.119,1.119,0,0,1-.831.426c-.355,0-.579-.152-.579-.477Zm3.733.933a3.242,3.242,0,0,0,1.926.7c1.349,0,2.07-.709,2.07-1.623s-.72-1.277-1.359-1.51c-.517-.194-.984-.314-.984-.64,0-.253.182-.4.568-.4a1.861,1.861,0,0,1,1.066.427l.668-.893a2.885,2.885,0,0,0-1.774-.639c-1.167,0-1.927.639-1.927,1.572,0,.832.72,1.247,1.329,1.481.517.2,1.024.355,1.024.69,0,.263-.194.424-.639.424a2.169,2.169,0,0,1-1.3-.527l-.668.933Zm5.142-1.247c0,1.167.487,1.947,1.735,1.947a3.6,3.6,0,0,0,1.114-.182l-.234-1.085a1.4,1.4,0,0,1-.477.1c-.4,0-.648-.232-.648-.8v-2.019h1.207v-1.166h-1.207v-1.34h-1.237l-.173,1.34-.769.061v1.1h.689v2.039Zm3.286-.69a2.451,2.451,0,0,0,2.545,2.637,3.3,3.3,0,0,0,1.785-.567l-.5-.9a2.036,2.036,0,0,1-1.085.335,1.217,1.217,0,0,1-1.308-1.1h3.011a2.942,2.942,0,0,0,.061-.629,2.123,2.123,0,0,0-2.14-2.413,2.47,2.47,0,0,0-2.372,2.637Zm1.43-.518c.1-.668.507-.982.975-.982.6,0,.841.405.841.982Zm3.855.518c0,1.642.812,2.637,2.059,2.637a1.987,1.987,0,0,0,1.338-.619h.04l.1.5h1.217V116.6h-1.49v1.714l.061.77a1.651,1.651,0,0,0-1.237-.527c-1.065,0-2.089.994-2.089,2.637Zm1.531-.021c0-.953.427-1.4.9-1.4a1.189,1.189,0,0,1,.831.325v2.059a.946.946,0,0,1-.823.456C250.759,122.611,250.424,122.165,250.424,121.171Z" transform="translate(-179.97 -112.628)" fill="#242021" fill-rule="evenodd"/>
    </g>
    <g id="Group_5" data-name="Group 5" transform="translate(177.033 151.919)">
      <g id="Group_3" data-name="Group 3" transform="translate(90.659)">
        <path id="Path_8" data-name="Path 8" d="M247.6,120.11c0-1.77-1.978-3.2-4.421-3.2s-4.42,1.435-4.42,3.2,1.978,3.2,4.42,3.2S247.6,121.878,247.6,120.11Z" transform="translate(-238.763 -116.905)" fill="#f6f1ec" fill-rule="evenodd"/>
        <path id="Path_9" data-name="Path 9" d="M246.431,118.7c-2.677,1.832-5.776-1.616-7,1.255C241.319,118.347,244.455,122.037,246.431,118.7Z" transform="translate(-238.509 -116.219)" fill="#242021" fill-rule="evenodd"/>
      </g>
      <g id="Group_4" data-name="Group 4">
        <path id="Path_10" data-name="Path 10" d="M181.795,120.11c0-1.77-1.981-3.2-4.421-3.2s-4.421,1.435-4.421,3.2,1.978,3.2,4.421,3.2S181.795,121.878,181.795,120.11Z" transform="translate(-172.952 -116.905)" fill="#f6f1ec" fill-rule="evenodd"/>
        <path id="Path_11" data-name="Path 11" d="M180.62,118.7c-2.677,1.832-5.775-1.616-7,1.255C175.508,118.347,178.645,122.037,180.62,118.7Z" transform="translate(-172.698 -116.219)" fill="#242021" fill-rule="evenodd"/>
      </g>
    </g>
    <g id="Group_7" data-name="Group 7" transform="translate(165.11 126.033)">
      <g id="Group_6" data-name="Group 6">
        <path id="Path_12" data-name="Path 12" d="M164.328,106c2.479-.806,3.725-1.188,6.222-1.912a7.279,7.279,0,0,1,1.356-.243,2.99,2.99,0,0,1,1.456.225,3.148,3.148,0,0,1,1.208.906,3.868,3.868,0,0,1,.738,1.483,3.4,3.4,0,0,1-.185,2.514,3.909,3.909,0,0,1-1.571,1.67c1.142.958,1.706,1.442,2.825,2.415l.119.112a2.542,2.542,0,0,0,.474.354,1.068,1.068,0,0,0,.373.124,1.318,1.318,0,0,0,.458-.055l.415-.109.453,1.723c-1.221.322-1.831.488-3.049.83-1.821-1.793-2.747-2.681-4.634-4.433l-.809.243.745,2.455a3.7,3.7,0,0,0,.3.792.494.494,0,0,0,.252.2.965.965,0,0,0,.507-.061l.438-.131.509,1.709c-1.854.55-2.779.838-4.622,1.436l-.55-1.7.424-.137a.941.941,0,0,0,.447-.246.565.565,0,0,0,.122-.343,3.578,3.578,0,0,0-.176-.672c-.878-2.762-1.318-4.144-2.2-6.907a2.2,2.2,0,0,0-.238-.559.342.342,0,0,0-.247-.169.833.833,0,0,0-.424.029l-.2.075c-.149.047-.224.072-.373.12Zm4.332.854.969,3.19c.583-.177.875-.264,1.459-.437a3.369,3.369,0,0,0,1.23-.575,1.47,1.47,0,0,0,.481-.758,1.852,1.852,0,0,0-.04-.968,1.69,1.69,0,0,0-.442-.781,1.283,1.283,0,0,0-.729-.354,3.358,3.358,0,0,0-1.279.189C169.648,106.552,169.319,106.65,168.66,106.851Z" transform="translate(-164.328 -95.833)" fill="#f6f1ec"/>
        <path id="Path_13" data-name="Path 13" d="M172.73,103.5c3.4-.885,5.107-1.29,8.533-2.025.81,1.493,1.211,2.24,2,3.74-.473.343-.709.516-1.178.863a5.716,5.716,0,0,0-1.117-1.4,2.2,2.2,0,0,0-1.161-.568,3.757,3.757,0,0,0-1.3.093c-.618.144-.928.217-1.544.365l.749,3.125.5-.119a1.918,1.918,0,0,0,.736-.282.616.616,0,0,0,.207-.39,2.917,2.917,0,0,0-.118-.9l-.109-.477c.513-.119.77-.177,1.283-.292.478,2.129.718,3.2,1.195,5.326-.5.112-.749.169-1.248.283l-.126-.542a2.377,2.377,0,0,0-.289-.781.64.64,0,0,0-.358-.279,2.165,2.165,0,0,0-.807.1c-.178.041-.267.064-.445.106l.691,2.88a2.575,2.575,0,0,0,.169.55.286.286,0,0,0,.173.12,1.125,1.125,0,0,0,.447-.05c.325-.076.487-.115.812-.189a3.328,3.328,0,0,0,1.46-.69,3.288,3.288,0,0,0,.881-1.344,6.2,6.2,0,0,0,.377-1.965c.567.118.849.177,1.413.3-.131,1.983-.191,2.974-.3,4.954-3.326.709-4.983,1.1-8.283,1.959l-.448-1.724.241-.064a1.631,1.631,0,0,0,.626-.256.521.521,0,0,0,.156-.373,4.764,4.764,0,0,0-.159-.77c-.69-2.721-1.036-4.081-1.725-6.8a2.746,2.746,0,0,0-.245-.709.509.509,0,0,0-.257-.206,1.066,1.066,0,0,0-.535.047l-.448.116Z" transform="translate(-161.114 -96.733)" fill="#f6f1ec"/>
        <path id="Path_14" data-name="Path 14" d="M183.814,100.725c.926-.17,1.389-.252,2.317-.411,1.911,3.708,2.836,5.573,4.627,9.321a2.787,2.787,0,0,0,.575.9.966.966,0,0,0,.711.069l.263,1.763c-1.833.274-2.75.423-4.578.742l-.307-1.756.278-.058a.86.86,0,0,0,.517-.224.423.423,0,0,0,.1-.35,3.5,3.5,0,0,0-.249-.651c-.195-.442-.293-.664-.491-1.106-1.2.206-1.8.314-3,.539-.051.539-.077.809-.127,1.349a2.714,2.714,0,0,0-.01.556.442.442,0,0,0,.424.371,3.352,3.352,0,0,0,.664-.086l.324,1.752c-1.495.277-2.24.422-3.73.729l-.358-1.746a1.319,1.319,0,0,0,.513-.189.7.7,0,0,0,.225-.3,2.609,2.609,0,0,0,.119-.655C183.034,107.064,183.272,104.951,183.814,100.725Zm.951,6.876c.791-.147,1.186-.217,1.978-.355-.629-1.326-.947-1.988-1.589-3.311C184.992,105.4,184.914,106.135,184.765,107.6Z" transform="translate(-157.727 -97.177)" fill="#f6f1ec"/>
        <path id="Path_15" data-name="Path 15" d="M196.214,99.055c.423-.046.635-.066,1.058-.109.595,1.8.886,2.7,1.461,4.5-.523.25-.784.376-1.3.63a8.589,8.589,0,0,0-1.525-2.2,2.41,2.41,0,0,0-1.926-.738,2.1,2.1,0,0,0-1.275.658,3.279,3.279,0,0,0-.795,1.582,6.418,6.418,0,0,0-.064,2.3,6.862,6.862,0,0,0,1.253,3.284,2.425,2.425,0,0,0,2.276,1.164,2.559,2.559,0,0,0,1.517-.795,6.864,6.864,0,0,0,1.445-2.22c.485.379.726.568,1.207.95a10.4,10.4,0,0,1-1.687,2.83,4.65,4.65,0,0,1-2.872,1.485,4.061,4.061,0,0,1-2.594-.55,6.133,6.133,0,0,1-2.121-2.173,8.584,8.584,0,0,1-1.168-3.292,8.033,8.033,0,0,1,.187-3.427,5.608,5.608,0,0,1,1.528-2.6,4.587,4.587,0,0,1,5.212-.7Z" transform="translate(-154.988 -97.7)" fill="#f6f1ec"/>
        <path id="Path_16" data-name="Path 16" d="M197.33,98.581c.4-.035.593-.051.987-.083.057.17.084.254.14.424,2.346-.189,3.52-.267,5.869-.389.043-.176.064-.264.105-.44l1-.05c.6,1.781.9,2.672,1.475,4.457-.535.261-.8.393-1.334.658a13.751,13.751,0,0,0-.723-1.435,3.521,3.521,0,0,0-.955-1.013,1.264,1.264,0,0,0-.778-.253.265.265,0,0,0-.238.122,1.087,1.087,0,0,0-.037.487l.442,7.394a5.492,5.492,0,0,0,.084.818.579.579,0,0,0,.137.256.428.428,0,0,0,.242.115,5.72,5.72,0,0,0,.8-.012l.1,1.779c-1.907.1-2.859.166-4.763.315l-.14-1.777.29-.022a1.525,1.525,0,0,0,.611-.124.5.5,0,0,0,.187-.292,3.018,3.018,0,0,0,.011-.83c-.218-3.021-.329-4.532-.548-7.553a.847.847,0,0,0-.09-.4.3.3,0,0,0-.257-.065,1.468,1.468,0,0,0-.83.424,3.221,3.221,0,0,0-.758,1.081c-.083.18-.252.679-.5,1.5-.553-.194-.831-.289-1.388-.48C196.8,101.348,196.972,100.426,197.33,98.581Z" transform="translate(-152.164 -98.045)" fill="#f6f1ec"/>
        <path id="Path_17" data-name="Path 17" d="M216.134,98.341c.424.011.636.018,1.06.032.347,1.864.516,2.8.845,4.661-.552.178-.827.268-1.376.449a8.553,8.553,0,0,0-1.217-2.381,2.4,2.4,0,0,0-1.806-.989,2.094,2.094,0,0,0-1.351.481,3.293,3.293,0,0,0-1,1.461,6.452,6.452,0,0,0-.369,2.27,6.891,6.891,0,0,0,.8,3.42,2.42,2.42,0,0,0,2.1,1.459,2.556,2.556,0,0,0,1.609-.585,6.838,6.838,0,0,0,1.725-2.007c.429.441.643.661,1.067,1.1a10.469,10.469,0,0,1-2.046,2.58,4.658,4.658,0,0,1-3.043,1.087,4.053,4.053,0,0,1-2.491-.893,6.163,6.163,0,0,1-1.807-2.436,8.64,8.64,0,0,1-.715-3.419,8.07,8.07,0,0,1,.643-3.373,5.586,5.586,0,0,1,1.858-2.374,4.571,4.571,0,0,1,5.252,0C215.976,98.668,216.029,98.559,216.134,98.341Z" transform="translate(-147.75 -98.041)" fill="#f6f1ec"/>
        <path id="Path_18" data-name="Path 18" d="M221.992,98.429a4.836,4.836,0,0,1,3.842,2.187,7.237,7.237,0,0,1,1.044,4.915,8.68,8.68,0,0,1-1.012,3.408,5.611,5.611,0,0,1-2.045,2.173,4.827,4.827,0,0,1-2.861.6,4.63,4.63,0,0,1-3.451-1.789,7.436,7.436,0,0,1-1.453-5.138,7.24,7.24,0,0,1,1.759-4.741A4.923,4.923,0,0,1,221.992,98.429Zm-.119,2.048a2.1,2.1,0,0,0-1.941.969,7.916,7.916,0,0,0-.5,7.021,2.016,2.016,0,0,0,3.563.256,6.675,6.675,0,0,0,1.084-3.4,8.2,8.2,0,0,0-.127-2.6,3.433,3.433,0,0,0-.817-1.631A1.943,1.943,0,0,0,221.874,100.476Z" transform="translate(-144.751 -97.905)" fill="#f6f1ec"/>
        <path id="Path_19" data-name="Path 19" d="M225.519,99.011c3.438.362,5.154.581,8.579,1.089.227,1.7.336,2.543.543,4.239-.56.148-.841.224-1.4.376a6.794,6.794,0,0,0-.416-1.428,2.855,2.855,0,0,0-.586-.853,2.206,2.206,0,0,0-.817-.524,6.267,6.267,0,0,0-1.11-.213c-.5-.066-.758-.1-1.264-.162l-.422,3.391c.254.032.382.047.636.08a1.038,1.038,0,0,0,.586-.065.8.8,0,0,0,.343-.318,2.118,2.118,0,0,0,.188-.72l.09-.677,1.313.178c-.319,2.284-.478,3.425-.8,5.707-.51-.071-.765-.105-1.275-.173l.109-.824a2,2,0,0,0,.019-.528,1.009,1.009,0,0,0-.131-.382.632.632,0,0,0-.236-.225,1.724,1.724,0,0,0-.527-.124l-.552-.069-.333,2.685a2.264,2.264,0,0,0-.019.664.478.478,0,0,0,.173.277,1.2,1.2,0,0,0,.531.152l.4.051-.232,1.768c-1.9-.249-2.845-.361-4.745-.56l.187-1.774.319.035a.986.986,0,0,0,.716-.1,1.112,1.112,0,0,0,.247-.7c.328-2.945.492-4.417.821-7.361a2.178,2.178,0,0,0,.008-.677.471.471,0,0,0-.195-.272,1.517,1.517,0,0,0-.607-.149l-.335-.036Z" transform="translate(-141.675 -97.675)" fill="#f6f1ec"/>
        <path id="Path_20" data-name="Path 20" d="M233.188,99.995c3.42.539,5.127.846,8.526,1.532.141,1.7.207,2.556.329,4.261-.57.119-.853.18-1.42.3a6.733,6.733,0,0,0-.344-1.448,2.865,2.865,0,0,0-.543-.883,2.2,2.2,0,0,0-.791-.565,6.313,6.313,0,0,0-1.1-.271c-.5-.093-.753-.137-1.257-.227l-.6,3.365c.253.044.379.068.632.113a1.046,1.046,0,0,0,.59-.033.806.806,0,0,0,.359-.3,2.148,2.148,0,0,0,.225-.711l.124-.672c.521.1.783.147,1.305.246-.436,2.265-.653,3.4-1.088,5.659-.507-.1-.76-.145-1.268-.239l.152-.817a2.03,2.03,0,0,0,.046-.527,1,1,0,0,0-.112-.387.642.642,0,0,0-.224-.238,1.7,1.7,0,0,0-.521-.151l-.548-.1c-.189,1.066-.283,1.6-.471,2.664a2.227,2.227,0,0,0-.053.661.474.474,0,0,0,.158.286,1.2,1.2,0,0,0,.524.178l.4.073-.322,1.753c-1.884-.346-2.829-.507-4.719-.8l.278-1.761.317.051a.989.989,0,0,0,.723-.066,1.1,1.1,0,0,0,.282-.687c.48-2.924.719-4.385,1.2-7.31a2.138,2.138,0,0,0,.043-.676.478.478,0,0,0-.181-.282,1.5,1.5,0,0,0-.6-.18l-.333-.054Z" transform="translate(-139.021 -97.299)" fill="#f6f1ec"/>
        <path id="Path_21" data-name="Path 21" d="M240.8,101.364c3.427.723,5.136,1.121,8.539,1.994.061,1.7.086,2.545.127,4.24-.579.1-.868.147-1.443.246a5.708,5.708,0,0,0-.376-1.753,2.214,2.214,0,0,0-.787-1.027,3.769,3.769,0,0,0-1.21-.5c-.617-.148-.926-.22-1.544-.364-.289,1.253-.434,1.879-.723,3.132l.5.116a1.928,1.928,0,0,0,.785.076.611.611,0,0,0,.359-.256,3.016,3.016,0,0,0,.3-.856l.113-.476c.513.122.769.185,1.28.311l-1.307,5.3c-.5-.123-.747-.184-1.246-.3l.13-.542a2.392,2.392,0,0,0,.09-.828.641.641,0,0,0-.2-.409,2.152,2.152,0,0,0-.765-.275l-.445-.1c-.267,1.154-.4,1.732-.666,2.887a2.535,2.535,0,0,0-.094.567.279.279,0,0,0,.1.185,1.141,1.141,0,0,0,.422.155l.812.192a3.337,3.337,0,0,0,1.616.035,3.292,3.292,0,0,0,1.389-.809,6.244,6.244,0,0,0,1.217-1.59c.455.358.682.538,1.134.9-1,1.716-1.5,2.576-2.479,4.3-3.3-.852-4.958-1.239-8.286-1.941l.368-1.743.243.051a1.617,1.617,0,0,0,.673.05.525.525,0,0,0,.306-.264,4.768,4.768,0,0,0,.2-.76c.6-2.743.895-4.115,1.49-6.858a2.789,2.789,0,0,0,.1-.745.51.51,0,0,0-.137-.3,1.075,1.075,0,0,0-.5-.2l-.451-.1Z" transform="translate(-136.417 -96.775)" fill="#f6f1ec"/>
        <path id="Path_22" data-name="Path 22" d="M248.806,103.236c3.394.912,5.085,1.4,8.447,2.466-.03,1.7-.051,2.547-.1,4.242-.585.065-.878.1-1.46.166a5.712,5.712,0,0,0-.282-1.772,2.218,2.218,0,0,0-.733-1.07,3.762,3.762,0,0,0-1.185-.564c-.611-.183-.917-.272-1.529-.449l-.892,3.087.494.144a1.914,1.914,0,0,0,.783.119.612.612,0,0,0,.373-.235,2.949,2.949,0,0,0,.343-.838l.14-.469c.507.151.76.227,1.266.382-.639,2.088-.957,3.132-1.6,5.221-.492-.151-.738-.225-1.232-.373l.159-.534a2.358,2.358,0,0,0,.135-.821.642.642,0,0,0-.176-.42,2.152,2.152,0,0,0-.749-.317l-.441-.129c-.329,1.139-.494,1.707-.823,2.845a2.49,2.49,0,0,0-.126.561.282.282,0,0,0,.09.191,1.157,1.157,0,0,0,.413.178l.8.236a3.365,3.365,0,0,0,1.618.126,3.315,3.315,0,0,0,1.436-.731,6.2,6.2,0,0,0,1.3-1.519c.437.383.654.575,1.088.961-1.1,1.658-1.641,2.489-2.715,4.157-3.263-1.034-4.9-1.515-8.2-2.4l.462-1.721.241.065a1.627,1.627,0,0,0,.672.087.519.519,0,0,0,.319-.247,4.634,4.634,0,0,0,.243-.748c.745-2.706,1.117-4.059,1.862-6.765a2.717,2.717,0,0,0,.138-.738.507.507,0,0,0-.122-.307,1.069,1.069,0,0,0-.489-.224l-.447-.12Z" transform="translate(-133.617 -96.059)" fill="#f6f1ec"/>
      </g>
    </g>
    <path id="Path_23" data-name="Path 23" d="M212.045,77.414a1.574,1.574,0,1,0,1.573,1.573A1.574,1.574,0,0,0,212.045,77.414Zm-4.41,4.7-.347-.088c-2.59-.654-4.074-1.764-4.074-3.046s1.485-2.392,4.074-3.046l.347-.087.1.344a17.4,17.4,0,0,0,1,2.632l.075.158-.075.156a17.214,17.214,0,0,0-1,2.634Zm-.509-5.375c-1.967.552-3.176,1.4-3.176,2.241s1.208,1.688,3.176,2.241A18.363,18.363,0,0,1,208,78.984,18.142,18.142,0,0,1,207.126,76.743Zm9.328,5.375-.1-.344a17.075,17.075,0,0,0-1-2.634l-.073-.156.073-.156a17.075,17.075,0,0,0,1-2.634l.1-.344.348.087c2.588.655,4.073,1.766,4.073,3.047s-1.485,2.392-4.073,3.046Zm-.361-3.134a18.291,18.291,0,0,1,.87,2.241c1.969-.553,3.176-1.4,3.176-2.241s-1.208-1.688-3.176-2.241A18.365,18.365,0,0,1,216.093,78.984Zm-8.971-2.245-.1-.344c-.729-2.565-.507-4.4.606-5.045,1.091-.63,2.844.113,4.68,2l.25.256-.25.257a17.313,17.313,0,0,0-1.782,2.184l-.1.141-.173.015a17.406,17.406,0,0,0-2.786.449Zm1.4-4.879a1.026,1.026,0,0,0-.518.127c-.733.422-.861,1.887-.358,3.866a18.746,18.746,0,0,1,2.379-.369,18.327,18.327,0,0,1,1.511-1.872A5.166,5.166,0,0,0,208.517,71.86Zm7.057,14.986h0c-1.048,0-2.4-.791-3.792-2.226l-.25-.256.25-.257a17.418,17.418,0,0,0,1.781-2.184l.1-.142.173-.014a17.449,17.449,0,0,0,2.787-.449l.347-.087.1.344c.727,2.565.506,4.4-.606,5.045A1.765,1.765,0,0,1,215.573,86.846Zm-3.014-2.489a5.158,5.158,0,0,0,3.014,1.752h0a1.029,1.029,0,0,0,.518-.127c.731-.422.861-1.889.357-3.867a18.189,18.189,0,0,1-2.379.369A18.376,18.376,0,0,1,212.559,84.357Zm4.409-7.618-.347-.087a17.293,17.293,0,0,0-2.787-.449l-.173-.015-.1-.141a17.181,17.181,0,0,0-1.781-2.184l-.25-.257.25-.256c1.835-1.884,3.586-2.628,4.68-2,1.112.642,1.333,2.48.606,5.045Zm-2.9-1.255a18.618,18.618,0,0,1,2.379.369c.5-1.978.375-3.444-.357-3.866s-2.095.224-3.532,1.625A18.509,18.509,0,0,1,214.069,75.484Zm-5.552,11.362a1.765,1.765,0,0,1-.888-.227c-1.113-.641-1.334-2.48-.606-5.045l.1-.344.347.087a17.332,17.332,0,0,0,2.786.449l.173.014.1.142a17.306,17.306,0,0,0,1.782,2.184l.25.257-.25.256C210.91,86.055,209.563,86.846,208.517,86.846Zm-.877-4.731c-.5,1.978-.375,3.445.358,3.867s2.092-.224,3.532-1.625a18.2,18.2,0,0,1-1.511-1.873A18.225,18.225,0,0,1,207.64,82.114Zm4.4.463c-.606,0-1.229-.026-1.853-.079l-.173-.014-.1-.142q-.529-.759-.993-1.562t-.859-1.64L208,78.984l.073-.156q.4-.838.859-1.64c.3-.527.639-1.052.993-1.562l.1-.142.173-.014a21.816,21.816,0,0,1,3.705,0l.171.014.1.142a22.022,22.022,0,0,1,1.853,3.2l.075.156-.075.156a21.63,21.63,0,0,1-1.853,3.2l-.1.142-.171.014C213.274,82.551,212.65,82.578,212.045,82.578Zm-1.618-.8a21.415,21.415,0,0,0,3.235,0,21.365,21.365,0,0,0,1.616-2.8,21.132,21.132,0,0,0-1.618-2.8,21.4,21.4,0,0,0-3.234,0,20.972,20.972,0,0,0-1.616,2.8A21.455,21.455,0,0,0,210.427,81.78Z" transform="translate(15.491 17.931)" fill="#242021"/>
  </g>
</svg>
